# xmcd
#
# Track frame offsets:
# 150
# 12950
# 27348
# 39891
# 50743
# 64687
# 79362
# 89886
# 102159
# 116016
# 128601
# 140907
# 153248
# 166520
# 182126
# 194241
#
# Disc length: 2734 seconds
#
#
# Revision: 3
# Processed by: cddbd v1.5.1PL0 Copyright (c) Steve Scherf et al.
# Submitted via: FreeRIP 2.941 
#
DISCID=de0aac10
DTITLE=Washington Brasileiro - Vocês São Show - Washington Brasileiro - Vocês São Show
DYEAR=2003
DGENRE=Forró
TTITLE0=Vocês são show
TTITLE1=O amor
TTITLE2=Te conquistar
TTITLE3=Tô carente
TTITLE4=Só nós
TTITLE5=Entre nós
TTITLE6=Cabra da roça
TTITLE7=Instalação trocada
TTITLE8=Férias no nordeste
TTITLE9=Renego
TTITLE10=Fique mais
TTITLE11=Encontro de nós dois
TTITLE12=Eu te amo tanto
TTITLE13=Eu, você e a praça
TTITLE14=Minha chefe
TTITLE15=Menino cantador
EXTD=YEAR: 2003 ID3G:   0
EXTT0=
EXTT1=
EXTT2=
EXTT3=
EXTT4=
EXTT5=
EXTT6=
EXTT7=
EXTT8=
EXTT9=
EXTT10=
EXTT11=
EXTT12=
EXTT13=
EXTT14=
EXTT15=
PLAYORDER=
